Beauty.and.the.Geek.AU.S04E01.WEB-DL.AAC.H264-JunKee


Aired: 2012-10-04

TVDB Link: http://thetvdb.com/?tab=series&id=118001


General
Format                                   : MPEG-4
File size                                : 813 MB
Duration                                 : 1h 8m
Overall bit rate                         : 1 664 Kbps

Video
Bit rate                                 : 1 500 Kbps
Width                                    : 624 pixels
Height                                   : 360 pixels
Display aspect ratio                     : 1.733
Frame rate                               : 25.000 fps
Stream size                              : 733 MiB (90%)

Audio
Format                                   : AAC
Bit rate                                 : 160 Kbps
Channel(s)                               : 2 channels
Stream size                              : 78.1 MiB (10%)
